vm<?xml version="1.0" standalone="no"?>
<!DOCTYPE svg PUBLIC "-//W3C//DTD SVG 20010904//EN"
 "http://www.w3.org/TR/2001/REC-SVG-20010904/DTD/svg10.dtd">
<svg version="1.0" xmlns="http://www.w3.org/2000/svg"
 width="640.000000pt" height="640.000000pt" viewBox="0 0 640.000000 640.000000"
 preserveAspectRatio="xMidYMid meet">

<g transform="translate(0.000000,640.000000) scale(0.100000,-0.100000)"
fill="#000000" stroke="none">
<path d="M2860 6146 c-443 -57 -846 -195 -1199 -413 -808 -498 -1315 -1306
-1411 -2246 -18 -175 -8 -566 19 -732 23 -141 69 -341 102 -445 329 -1022
1163 -1781 2209 -2009 245 -54 481 -71 776 -59 639 27 1286 283 1769 701 479
414 808 948 954 1548 50 207 69 338 81 558 22 399 -41 808 -183 1186 -155 416
-376 756 -699 1076 -386 383 -859 645 -1398 774 -226 54 -346 67 -640 71 -189
2 -308 -1 -380 -10z m-1465 -1829 c46 -26 94 -93 125 -175 34 -88 277 -763
319 -887 80 -230 185 -520 191 -528 4 -4 55 124 115 285 180 489 235 640 260
708 12 36 33 92 45 124 l23 59 39 -104 c22 -57 79 -213 129 -347 l89 -243 -54
-132 c-30 -73 -109 -269 -176 -436 -160 -400 -172 -424 -242 -493 -73 -72
-131 -92 -251 -86 -62 2 -94 9 -130 28 -85 43 -122 95 -217 305 -13 28 -77
184 -180 440 -48 121 -113 281 -143 355 -320 783 -329 808 -331 895 -1 60 3
77 26 116 56 95 134 139 248 139 59 0 83 -5 115 -23z m1544 12 c98 -21 130
-75 271 -469 127 -352 132 -367 188 -525 191 -539 215 -605 223 -605 9 0 -12
-54 244 640 29 80 74 201 98 270 115 317 198 534 218 568 33 55 80 102 118
118 43 18 193 18 244 0 53 -19 70 -37 110 -114 44 -86 68 -148 231 -607 74
-209 173 -488 219 -620 47 -132 111 -312 141 -400 31 -88 79 -225 108 -304 56
-159 56 -164 -4 -194 -80 -39 -225 -40 -300 -1 -42 22 -104 80 -130 122 -38
61 -116 246 -346 819 -86 216 -160 393 -164 393 -3 0 -42 -91 -86 -202 -160
-405 -363 -901 -391 -956 -39 -77 -98 -142 -157 -172 -43 -22 -62 -25 -154
-25 -84 0 -113 4 -145 20 -86 42 -153 137 -209 291 -51 143 -106 296 -179 494
-112 305 -384 1038 -406 1095 -50 128 -82 231 -77 251 8 32 81 98 123 111 49
15 148 16 212 2z"/>
</g>
</svg>
